<?xml version="1.0" encoding="UTF-8" standalone="no"?>
<!-- Created with Inkscape (http://www.inkscape.org/) -->

<svg
   version="1.1"
   id="svg1393"
   xml:space="preserve"
   width="160.11066"
   height="160.09067"
   viewBox="0 0 160.11065 160.09067"
   xmlns="http://www.w3.org/2000/svg"
   xmlns:svg="http://www.w3.org/2000/svg"><defs
     id="defs1397"><clipPath
       clipPathUnits="userSpaceOnUse"
       id="clipPath1407"><path
         d="M 0,595.28 H 841.89 V 0 H 0 Z"
         id="path1405" /></clipPath><linearGradient
       x1="0"
       y1="0"
       x2="1"
       y2="0"
       gradientUnits="userSpaceOnUse"
       gradientTransform="matrix(-40.258072,-32.290299,-32.290299,40.258087,219.11182,410.96777)"
       spreadMethod="pad"
       id="linearGradient1431"><stop
         style="stop-opacity:1;stop-color:#f7f7f8"
         offset="0"
         id="stop1425" /><stop
         style="stop-opacity:1;stop-color:#f7f7f8"
         offset="0.26303688"
         id="stop1427" /><stop
         style="stop-opacity:1;stop-color:#dcdddd"
         offset="1"
         id="stop1429" /></linearGradient><clipPath
       clipPathUnits="userSpaceOnUse"
       id="clipPath1441"><path
         d="M 0,595.28 H 841.89 V 0 H 0 Z"
         id="path1439" /></clipPath><linearGradient
       x1="0"
       y1="0"
       x2="1"
       y2="0"
       gradientUnits="userSpaceOnUse"
       gradientTransform="matrix(-9.290329,-7.4516144,-7.4516144,9.290329,438.8584,199.19629)"
       spreadMethod="pad"
       id="linearGradient1917"><stop
         style="stop-opacity:1;stop-color:#f7f7f8"
         offset="0"
         id="stop1911" /><stop
         style="stop-opacity:1;stop-color:#f7f7f8"
         offset="0.26303688"
         id="stop1913" /><stop
         style="stop-opacity:1;stop-color:#dcdddd"
         offset="1"
         id="stop1915" /></linearGradient><clipPath
       clipPathUnits="userSpaceOnUse"
       id="clipPath1927"><path
         d="M 0,595.28 H 841.89 V 0 H 0 Z"
         id="path1925" /></clipPath><linearGradient
       x1="0"
       y1="0"
       x2="1"
       y2="0"
       gradientUnits="userSpaceOnUse"
       gradientTransform="matrix(-9.290329,-7.4516144,-7.4516144,9.290329,487.08008,107.7041)"
       spreadMethod="pad"
       id="linearGradient1973"><stop
         style="stop-opacity:1;stop-color:#f7f7f8"
         offset="0"
         id="stop1967" /><stop
         style="stop-opacity:1;stop-color:#f7f7f8"
         offset="0.26303688"
         id="stop1969" /><stop
         style="stop-opacity:1;stop-color:#dcdddd"
         offset="1"
         id="stop1971" /></linearGradient><clipPath
       clipPathUnits="userSpaceOnUse"
       id="clipPath1983"><path
         d="M 0,595.28 H 841.89 V 0 H 0 Z"
         id="path1981" /></clipPath><linearGradient
       x1="0"
       y1="0"
       x2="1"
       y2="0"
       gradientUnits="userSpaceOnUse"
       gradientTransform="matrix(-10.529038,-8.4451599,-8.4451599,10.529038,638.07812,198.36523)"
       spreadMethod="pad"
       id="linearGradient2029"><stop
         style="stop-opacity:1;stop-color:#f7f7f8"
         offset="0"
         id="stop2023" /><stop
         style="stop-opacity:1;stop-color:#f7f7f8"
         offset="0.26303688"
         id="stop2025" /><stop
         style="stop-opacity:1;stop-color:#dcdddd"
         offset="1"
         id="stop2027" /></linearGradient><clipPath
       clipPathUnits="userSpaceOnUse"
       id="clipPath2039"><path
         d="M 0,595.28 H 841.89 V 0 H 0 Z"
         id="path2037" /></clipPath><linearGradient
       x1="0"
       y1="0"
       x2="1"
       y2="0"
       gradientUnits="userSpaceOnUse"
       gradientTransform="matrix(-7.4322662,-5.9612885,-5.9612885,7.4322662,691.14453,108.94824)"
       spreadMethod="pad"
       id="linearGradient2095"><stop
         style="stop-opacity:1;stop-color:#f7f7f8"
         offset="0"
         id="stop2089" /><stop
         style="stop-opacity:1;stop-color:#f7f7f8"
         offset="0.26303688"
         id="stop2091" /><stop
         style="stop-opacity:1;stop-color:#dcdddd"
         offset="1"
         id="stop2093" /></linearGradient><clipPath
       clipPathUnits="userSpaceOnUse"
       id="clipPath2105"><path
         d="M 0,595.28 H 841.89 V 0 H 0 Z"
         id="path2103" /></clipPath></defs><g
     id="g1399"
     transform="matrix(1.3333333,0,0,-1.3333333,-218.97066,649.46545)"><g
       id="g1401"><g
         id="g1403"
         clip-path="url(#clipPath1407)"><g
           id="g1409"
           transform="translate(284.311,427.0571)"><path
             d="m 0,0 c 0,-33.144 -26.904,-60.026 -60.042,-60.026 -33.158,0 -60.041,26.882 -60.041,60.026 0,33.164 26.883,60.042 60.041,60.042 C -26.904,60.042 0,33.164 0,0"
             style="fill:#e83e44;fill-opacity:1;fill-rule:nonzero;stroke:none"
             id="path1411" /></g></g></g><g
       id="g1413"><g
         id="g1415"><g
           id="g1421"><g
             id="g1423"><path
               d="m 252.737,437.953 v -0.04 0.05 z"
               style="fill:url(#linearGradient1431);stroke:none"
               id="path1433" /></g></g></g></g><g
       id="g1435"><g
         id="g1437"
         clip-path="url(#clipPath1441)"><g
           id="g1443"
           transform="translate(174.2358,433.7524)"><path
             d="M 0,0 C 0,-0.041 0.112,-1.324 0.112,-1.324 0.092,-1.62 0.255,-1.901 0.521,-2.003 0.756,-2.111 1.022,-2.06 1.257,-1.861 3.495,0.02 6.889,1.702 9.618,0.762 11.754,0.02 13.206,-2.183 13.962,-5.796 15.516,-13.37 10.323,-17.02 7.083,-18.506 L 6.971,-18.557 2.82,-20.592 c 0,0 -0.234,-0.101 -0.49,0.021 -0.255,0.133 -0.327,0.297 -0.501,0.746 -2.821,10.411 -3.782,21.348 -2.729,31.559 0.112,0.767 0.46,1.697 1.053,2.454 l 3.485,3.715 0.389,0.424 c 1.891,1.84 3.669,2.76 4.631,2.361 C 9.455,20.351 9.649,19.073 9.659,18.071 9.822,12.644 6.787,7.098 0.429,1.125 0.429,1.125 -0.062,0.726 0,0 m 19.104,7.528 c -1.892,1.13 -4.027,1.451 -6.184,1.139 3.934,4.192 6.072,8.75 6.072,13.35 0,0.419 -0.011,0.838 -0.062,1.268 -0.204,2.861 -1.523,5.008 -3.567,5.734 -2.045,0.766 -5.797,0.378 -11.756,-5.714 L 0.03,19.298 C -0.961,18.092 -4.723,12.399 -5.418,6.47 c -1.165,-10.078 -0.419,-20.136 2.147,-29.054 0.296,-1.042 1.257,-3.558 3.567,-4.489 2.454,-1.001 4.784,0.205 6.849,1.269 l 0.551,0.275 2.126,0.951 2.065,0.91 2.515,1.104 c 1.808,0.736 3.506,1.421 5.161,2.811 2.198,1.876 3.813,4.328 4.641,7.119 0.43,1.441 0.726,3.015 0.879,4.804 0.133,1.39 0.276,4.089 -0.245,6.46 -1.134,5.223 -3.731,7.718 -5.734,8.898"
             style="fill:#ffffff;fill-opacity:1;fill-rule:nonzero;stroke:none"
             id="path1445" /></g><g
           id="g1447"
           transform="translate(240.4609,472.9214)"><path
             d="M 0,0 C -1.166,3.996 -3.067,4.834 -3.619,5.019 -8.606,6.613 -13.79,6.94 -18.818,6.062 -26.372,4.671 -32.903,0.706 -37.237,-5.101 c -4.549,-6.107 -6.307,-13.727 -4.958,-21.434 1.37,-7.738 5.275,-14.004 11.346,-18.103 7.114,-4.794 16.579,-6.255 26.699,-4.129 5.979,1.298 10.917,3.623 14.739,6.92 1.707,1.482 2.034,3.368 2.034,4.692 0,0 0.092,1.068 -0.736,4.436 -0.224,0.817 -0.582,1.063 -1.155,1.063 -0.419,0 -0.858,-0.481 -0.94,-0.583 -2.852,-3.302 -7.196,-5.601 -12.624,-6.669 -13.932,-2.678 -24.644,3.827 -27.301,16.584 -1.135,5.525 -0.195,10.824 2.688,14.924 2.893,4.17 7.635,6.93 13.349,7.788 4.354,0.634 8.78,0.098 12.756,-1.564 0,0 1.708,-0.495 1.34,1.176"
             style="fill:#ffffff;fill-opacity:1;fill-rule:nonzero;stroke:none"
             id="path1449" /></g></g></g></g></svg>
